<?xml version="1.0" encoding="UTF-8"?>
<svg version="1.1" xmlns="http://www.w3.org/2000/svg" width="848" height="795">
<path d="M0 0 C279.84 0 559.68 0 848 0 C848 262.35 848 524.7 848 795 C568.16 795 288.32 795 0 795 C0 532.65 0 270.3 0 0 Z " fill="#FEFEFE" transform="translate(0,0)"/>
<path d="M0 0 C25.74 0 51.48 0 78 0 C78 24.20913462 78 24.20913462 76.625 34.125 C76.49867188 35.13046875 76.37234375 36.1359375 76.2421875 37.171875 C75.06948983 46.24855497 73.70811412 55.24123929 71 64 C70.39843086 66.00650843 69.79686918 68.01301909 69.1953125 70.01953125 C68.50603656 72.28410642 67.81590958 74.54842271 67.125 76.8125 C66.61646484 78.49956055 66.61646484 78.49956055 66.09765625 80.22070312 C62.99457194 90.37357024 59.30065752 99.87678961 54.3125 109.25 C53.87824707 110.06847412 53.44399414 110.88694824 52.99658203 111.73022461 C44.78910385 126.99589551 34.85224679 140.33879033 23 153 C22.10539063 153.96035156 21.21078125 154.92070312 20.2890625 155.91015625 C2.08383484 175.02393981 -20.62260357 186.61322536 -45 196 C-45.72461426 196.28246582 -46.44922852 196.56493164 -47.19580078 196.85595703 C-57.37548277 200.76172539 -67.81668033 202.70164119 -78.51611328 204.54589844 C-80.6955587 204.94434236 -82.84043871 205.40497386 -84.99609375 205.9140625 C-100.36577779 209.28060537 -113.34228405 208 -130 208 C-130 182.59 -130 157.18 -130 131 C-125.52965324 130.36137903 -121.64162621 129.8708206 -117.2109375 129.7890625 C-92.68952533 129.20263369 -68.66189539 127.2663907 -44.74316406 121.64404297 C-41.3681731 120.85165901 -37.98341471 120.10616278 -34.59716797 119.36352539 C-22.63229888 116.45885044 -12.86940536 112.52167823 -1 108 C-0.505 54.54 -0.505 54.54 0 0 Z " fill="#3BCAA7" transform="translate(386,207)"/>
<path d="M0 0 C0 25.74 0 51.48 0 78 C-9.9 78.33 -19.8 78.66 -30 79 C-35.87587641 79.49555584 -41.67419584 79.99860019 -47.515625 80.70849609 C-50.17452027 81.02047732 -52.83594248 81.28668805 -55.5 81.55078125 C-79.07370021 84.02042588 -102.00071688 89.41754134 -124.00244141 98.26318359 C-126 99 -126 99 -130 100 C-130 135.64 -130 171.28 -130 208 C-155.74 208 -181.48 208 -208 208 C-208 181.22538425 -208 181.22538425 -206.375 171.0625 C-206.1982373 169.90065186 -206.02147461 168.73880371 -205.83935547 167.54174805 C-198.96905237 124.56873305 -181.96889436 84.14900767 -151 53 C-150.5148291 52.51080078 -150.0296582 52.02160156 -149.52978516 51.51757812 C-131.03073905 33.12020799 -107.12740829 18.24933905 -82 11 C-81.2378418 10.76764648 -80.47568359 10.53529297 -79.69042969 10.29589844 C-53.18846964 2.24247915 -27.67734249 0 0 0 Z " fill="#3CCAA7" transform="translate(594,312)"/>
<path d="M0 0 C25.74 0 51.48 0 78 0 C78 27.84877727 68.243792 54.51671089 48.46875 74.56640625 C47.6540625 75.36949219 46.839375 76.17257812 46 77 C44.98873047 78.11568359 44.98873047 78.11568359 43.95703125 79.25390625 C32.16651626 91.94642786 16.44542593 100.49522863 1 108 C0.67 108 0.34 108 0 108 C0 72.36 0 36.72 0 0 Z " fill="#0E82CA" transform="translate(386,207)"/>
<path d="M0 0 C0 35.31 0 70.62 0 107 C-25.74 107 -51.48 107 -78 107 C-78 80.89749341 -69.37971488 56.69031281 -52 37 C-51.27941406 36.15953125 -50.55882812 35.3190625 -49.81640625 34.453125 C-39.96575174 23.1854786 -16.52189262 0 0 0 Z " fill="#0D82C9" transform="translate(464,413)"/>
<path d="M0 0 C6.6825 -0.061875 13.365 -0.12375 20.25 -0.1875 C23.3751709 -0.22846802 23.3751709 -0.22846802 26.56347656 -0.27026367 C51.40929586 -0.46034833 51.40929586 -0.46034833 60 7 C62.73911621 11.44155301 62.65435305 15.93275384 62 21 C59.30120482 26.4939759 59.30120482 26.4939759 55.75 27.875 C55.1725 27.91625 54.595 27.9575 54 28 C54 28.66 54 29.32 54 30 C54.598125 30.226875 55.19625 30.45375 55.8125 30.6875 C58.71989534 32.4319372 59.59078188 33.91314127 61 37 C61.495 40.96 61.495 40.96 62 45 C56.06 45 50.12 45 44 45 C40 36.25 40 36.25 40 34 C37.26750659 33.24722485 34.71899317 32.83358297 31.890625 32.68359375 C30.75947266 32.62075195 30.75947266 32.62075195 29.60546875 32.55664062 C28.82816406 32.51732422 28.05085938 32.47800781 27.25 32.4375 C26.06083984 32.37272461 26.06083984 32.37272461 24.84765625 32.30664062 C22.89862185 32.20097009 20.94933252 32.10002034 19 32 C19 36.29 19 40.58 19 45 C12.73 45 6.46 45 0 45 C0 30.15 0 15.3 0 0 Z " fill="#0E6BC0" transform="translate(316,575)"/>
<path d="M0 0 C6.6825 -0.061875 13.365 -0.12375 20.25 -0.1875 C23.3751709 -0.22846802 23.3751709 -0.22846802 26.56347656 -0.27026367 C49.90038405 -0.44976567 49.90038405 -0.44976567 57.625 5.375 C61.43221233 9.58297152 62.5700338 13.18421866 62.4609375 18.93359375 C61.59891919 22.79806565 58.88597483 25.42056654 56 28 C55.01 28.495 55.01 28.495 54 29 C54.78375 29.495 55.5675 29.99 56.375 30.5 C59.74101329 33.70572695 60.40907756 36.48429419 61 41 C61 42.32 61 43.64 61 45 C55.06 45 49.12 45 43 45 C42.08854167 42.4609375 41.17708333 39.921875 40.265625 37.3828125 C39.1905965 34.98075524 39.1905965 34.98075524 37.40625 33.71875 C33.72755771 32.61991984 30.07096454 32.52707819 26.25 32.375 C25.45722656 32.33632813 24.66445313 32.29765625 23.84765625 32.2578125 C21.89880584 32.163892 19.94943549 32.08087178 18 32 C18 36.29 18 40.58 18 45 C12.06 45 6.12 45 0 45 C0 30.15 0 15.3 0 0 Z " fill="#0E6BC0" transform="translate(625,575)"/>
<path d="M0 0 C23 0 23 0 30.4375 6.875 C32.22021484 9.12597656 32.22021484 9.12597656 33.3984375 11.015625 C35.59483889 14.40582758 37.97313915 17.51776698 40.5625 20.625 C41.71013858 22.08191312 42.85604313 23.54019425 44 25 C45.32 26.65 46.64 28.3 48 30 C48.33 20.1 48.66 10.2 49 0 C55.27 0 61.54 0 68 0 C68 15.18 68 30.36 68 46 C45 46 45 46 39.125 41.1875 C37.69981557 39.15935292 36.32425675 37.09544156 35 35 C33.43880817 33.06525567 31.85574112 31.14793335 30.25 29.25 C29.57453125 28.40953125 28.8990625 27.5690625 28.203125 26.703125 C25.5273616 23.42009614 22.75631377 20.2156994 20 17 C19.67 26.57 19.34 36.14 19 46 C12.73 46 6.46 46 0 46 C0 30.82 0 15.64 0 0 Z " fill="#0F6CC0" transform="translate(99,575)"/>
<path d="M0 0 C4.46256778 0.20374215 6.49011997 0.5584948 9.94995117 3.55078125 C12.19462862 6.66595669 13.93041968 10.05928252 15.67504883 13.47265625 C18.46661485 18.67176334 21.76405757 23.57721626 24.93432617 28.55078125 C26.20658308 30.57951094 27.47499692 32.61065725 28.73901367 34.64453125 C29.28283691 35.51787109 29.82666016 36.39121094 30.38696289 37.29101562 C32.33704509 40.50907828 34.19244904 43.78374627 36.05932617 47.05078125 C29.45932617 47.05078125 22.85932617 47.05078125 16.05932617 47.05078125 C13.05932617 41.05078125 13.05932617 41.05078125 13.05932617 39.05078125 C3.15932617 39.05078125 -6.74067383 39.05078125 -16.94067383 39.05078125 C-17.60067383 41.03078125 -18.26067383 43.01078125 -18.94067383 45.05078125 C-19.27067383 45.71078125 -19.60067383 46.37078125 -19.94067383 47.05078125 C-26.54067383 47.05078125 -33.14067383 47.05078125 -39.94067383 47.05078125 C-35.97941495 39.69856147 -31.59689384 32.68858531 -27.06567383 25.67578125 C-25.6931503 23.54305092 -24.32075351 21.41023903 -22.94848633 19.27734375 C-22.28365234 18.24641602 -21.61881836 17.21548828 -20.93383789 16.15332031 C-18.36333757 12.15210545 -15.8210429 8.13329507 -13.28393555 4.11083984 C-10.25361188 -0.53653768 -5.15059598 0.10448883 0 0 Z " fill="#0F6CC0" transform="translate(578.940673828125,573.94921875)"/>
<path d="M0 0 C5.33548378 0.93311389 8.04505177 3.05949103 11.3112793 7.32861328 C14.71261719 12.46607775 17.59015977 17.85795123 20.43188477 23.31982422 C23.19071839 28.42015077 26.41153175 33.18508395 29.65112305 37.98876953 C30.73860001 39.61796017 31.82115799 41.2504524 32.8972168 42.88720703 C33.34637451 43.56187012 33.79553223 44.2365332 34.25830078 44.93164062 C35.21362305 46.61376953 35.21362305 46.61376953 35.21362305 48.61376953 C28.94362305 48.61376953 22.67362305 48.61376953 16.21362305 48.61376953 C14.89362305 46.30376953 13.57362305 43.99376953 12.21362305 41.61376953 C2.64362305 41.61376953 -6.92637695 41.61376953 -16.78637695 41.61376953 C-18.10637695 43.92376953 -19.42637695 46.23376953 -20.78637695 48.61376953 C-27.05637695 48.61376953 -33.32637695 48.61376953 -39.78637695 48.61376953 C-38.31230341 44.92858568 -37.04779073 42.23215587 -34.95043945 38.98095703 C-34.38752197 38.10068848 -33.82460449 37.22041992 -33.24462891 36.31347656 C-32.00086956 34.39707016 -30.75182634 32.48408467 -29.49804688 30.57421875 C-26.37611877 25.79027109 -23.42605993 21.04955753 -20.8605957 15.94189453 C-15.94565887 6.4362068 -11.60543204 -0.34588379 0 0 Z " fill="#0F6CC0" transform="translate(425.786376953125,572.38623046875)"/>
<path d="M0 0 C17.16 0 34.32 0 52 0 C52 3.63 52 7.26 52 11 C41.11 11 30.22 11 19 11 C19 13.31 19 15.62 19 18 C28.24 18 37.48 18 47 18 C47 20.97 47 23.94 47 27 C37.76 27 28.52 27 19 27 C19 29.31 19 31.62 19 34 C30.88 34 42.76 34 55 34 C55 37.63 55 41.26 55 45 C36.85 45 18.7 45 0 45 C0 30.15 0 15.3 0 0 Z " fill="#0D6AC0" transform="translate(181,575)"/>
<path d="M0 0 C17.16 0 34.32 0 52 0 C52 3.63 52 7.26 52 11 C41.11 11 30.22 11 19 11 C19 13.31 19 15.62 19 18 C28.24 18 37.48 18 47 18 C47 20.97 47 23.94 47 27 C37.76 27 28.52 27 19 27 C19 29.31 19 31.62 19 34 C30.55 34 42.1 34 54 34 C54 37.63 54 41.26 54 45 C36.18 45 18.36 45 0 45 C0 30.15 0 15.3 0 0 Z " fill="#0D6AC0" transform="translate(699,575)"/>
<path d="M0 0 C6.27 0 12.54 0 19 0 C19.03738281 1.96324219 19.07476562 3.92648437 19.11328125 5.94921875 C19.17893988 8.52866497 19.24538725 11.1080912 19.3125 13.6875 C19.33505859 14.98107422 19.35761719 16.27464844 19.38085938 17.60742188 C19.4340332 19.47817383 19.4340332 19.47817383 19.48828125 21.38671875 C19.51446533 22.53358154 19.54064941 23.68044434 19.56762695 24.86206055 C20.04141135 28.30054212 20.92897521 30.23715943 23 33 C25.10883908 33.88453789 25.10883908 33.88453789 27.4375 33.9375 C28.19933594 34.00839844 28.96117187 34.07929687 29.74609375 34.15234375 C32.34907583 33.97640562 33.81584788 33.41436602 36 32 C38.38948197 28.41577704 38.30233168 26.62767404 38.4140625 22.36328125 C38.45273437 21.06455078 38.49140625 19.76582031 38.53125 18.42773438 C38.56270517 17.05599427 38.59395251 15.68424939 38.625 14.3125 C38.66319197 12.92901215 38.70224442 11.54554777 38.7421875 10.16210938 C38.83660267 6.77496528 38.91939572 3.38750089 39 0 C45.27 0 51.54 0 58 0 C58.11576927 4.09051415 58.21498362 8.17677731 58.2746582 12.26806641 C58.29956805 13.65498264 58.33351002 15.04177087 58.37719727 16.42822266 C58.64453306 25.14022439 58.44833622 32.76907055 53 40 C43.83645951 47.98515728 32.46057857 47.53521484 21 47 C14.23581156 46.4051352 8.62227178 44.12705949 4 39 C-1.17044871 31.50421722 -0.45985077 23.72464465 -0.25 15 C-0.22990336 13.54299331 -0.21165818 12.08595985 -0.1953125 10.62890625 C-0.15499191 7.08472666 -0.07667994 3.5443172 0 0 Z " fill="#0F6CC0" transform="translate(246,575)"/>
<path d="M0 0 C3.1272275 2.41025339 5.32968322 5.22863656 6.9765625 8.796875 C6.9765625 10.116875 6.9765625 11.436875 6.9765625 12.796875 C3.72686481 12.91325536 0.4777042 12.98418081 -2.7734375 13.046875 C-4.15402344 13.09714844 -4.15402344 13.09714844 -5.5625 13.1484375 C-12.45638629 13.2483489 -12.45638629 13.2483489 -15.4765625 10.84375 C-15.98703125 10.16828125 -16.4975 9.4928125 -17.0234375 8.796875 C-20.74547649 7.55619534 -24.15717058 7.24976176 -28.0234375 7.796875 C-32.28010449 10.03849925 -32.28010449 10.03849925 -35.0234375 13.796875 C-35.46152468 18.08507456 -35.47270368 21.74109948 -33.7734375 25.734375 C-31.82813758 28.0270499 -30.90195765 28.94109874 -28.0234375 29.796875 C-22.37606576 30.2523082 -18.93852952 29.91376262 -14.0234375 26.796875 C-13.6934375 26.136875 -13.3634375 25.476875 -13.0234375 24.796875 C-6.4234375 24.796875 0.1765625 24.796875 6.9765625 24.796875 C6.02968281 30.47815317 5.15348727 33.13689636 0.9765625 36.796875 C-6.61992793 41.76381105 -14.9822837 43.17624138 -23.8984375 43.109375 C-24.68782715 43.10373535 -25.4772168 43.0980957 -26.29052734 43.09228516 C-35.98096191 42.89094101 -44.00695238 40.84569416 -51.0234375 33.796875 C-55.77739844 28.15658236 -55.68674593 21.46919015 -55.4609375 14.36328125 C-54.70899642 8.23361866 -52.6170773 4.991114 -47.96875 1.05859375 C-35.01616362 -8.33091091 -13.61610476 -8.09606229 0 0 Z " fill="#106CC1" transform="translate(524.0234375,579.203125)"/>
<path d="M0 0 C3.05273034 3.24352599 3.41295445 5.61384413 3.33984375 10.08984375 C2.74175978 13.67147307 0.85223717 15.06167949 -2 17.125 C-4.45800425 18.07810369 -6.44593147 18.64406936 -9 19.125 C-9.90105469 19.30933594 -10.80210937 19.49367188 -11.73046875 19.68359375 C-28.92440253 22.90884653 -28.92440253 22.90884653 -35.125 19.3125 C-37.55440665 16.47819224 -37.95957366 14.43686032 -38.4375 10.75 C-38 7.125 -38 7.125 -35.5859375 4.54296875 C-31.53372782 1.39357679 -27.15231875 0.66901466 -22.1875 -0.1875 C-21.33607422 -0.35572266 -20.48464844 -0.52394531 -19.60742188 -0.69726562 C-5.36711144 -3.35444465 -5.36711144 -3.35444465 0 0 Z " fill="#08843D" transform="translate(732,298.875)"/>
<path d="M0 0 C2.8125 2.5 2.8125 2.5 5 5 C5.495 5.495 5.495 5.495 6 6 C6.55663169 9.40936913 6.66722052 11.90717703 4.82421875 14.92578125 C-1.4719035 22.42402707 -9.94796618 30.0952011 -19 34 C-23.32948568 34.17317943 -24.62786706 33.33168371 -27.875 30.4375 C-29.97658292 27.53399728 -30.99438275 24.80069766 -30.72265625 21.12890625 C-27.66689119 12.12678757 -9.45120923 -2.59444959 0 0 Z " fill="#08843D" transform="translate(662,152)"/>
<path d="M0 0 C13.2 0 26.4 0 40 0 C40 2.97 40 5.94 40 9 C36.04 9.66 32.08 10.32 28 11 C31.96 11.33 35.92 11.66 40 12 C40 14.64 40 17.28 40 20 C34.78556667 20.02470935 29.57116739 20.04286444 24.35668945 20.05493164 C22.58259487 20.059962 20.80850444 20.06678699 19.03442383 20.07543945 C16.48517839 20.08756174 13.93598774 20.09324126 11.38671875 20.09765625 C10.19594978 20.10539818 10.19594978 20.10539818 8.98112488 20.11329651 C5.72343714 20.11362877 3.11318479 20.03772826 0 19 C0 16.36 0 13.72 0 11 C2.97 10.34 5.94 9.68 9 9 C6.03 8.67 3.06 8.34 0 8 C0 5.36 0 2.72 0 0 Z " fill="#08843D" transform="translate(111,340)"/>
<path d="M0 0 C2.76276177 0.52268466 5.3260876 1.10869587 8 2 C7.34 7.28 6.68 12.56 6 18 C7.65 13.38 9.3 8.76 11 4 C16 5 16 5 19 6 C16.61544174 13.21642631 14.17693313 20.4133931 11.66601562 27.58691406 C11.21755521 28.875087 10.77362716 30.16484576 10.33398438 31.45605469 C9.69209832 33.3391098 9.03380668 35.21654783 8.375 37.09375 C7.79878906 38.75954102 7.79878906 38.75954102 7.2109375 40.45898438 C6.81132813 41.29751953 6.41171875 42.13605469 6 43 C3 44 3 44 -2 42 C-1.67 37.05 -1.34 32.1 -1 27 C-2.65 31.29 -4.3 35.58 -6 40 C-8.31 39.34 -10.62 38.68 -13 38 C-11.94996683 32.23035777 -10.04370508 26.80177126 -8.1875 21.25 C-7.84396484 20.20328125 -7.50042969 19.1565625 -7.14648438 18.078125 C-5.08303081 11.8838929 -2.79302843 5.90274374 0 0 Z " fill="#09843E" transform="translate(522,59)"/>
<path d="M0 0 C4.82234696 1.33030261 9.03863306 3.45429482 12.625 7 C12.625 8.32 12.625 9.64 12.625 11 C13.47320312 10.9071875 14.32140625 10.814375 15.1953125 10.71875 C19.55217356 11.07603246 22.11553687 12.95016692 25.5 15.5 C26.09296875 15.92925781 26.6859375 16.35851562 27.296875 16.80078125 C28.74880319 17.8546001 30.18822345 18.92561516 31.625 20 C29.75 24.75 29.75 24.75 28.625 27 C24.11027686 25.35683221 20.59903754 23.01561039 16.7109375 20.2421875 C14.60003577 18.74417322 14.60003577 18.74417322 11.625 19 C13.39529446 20.29240512 15.16625498 21.58389793 16.9375 22.875 C17.92363281 23.59429687 18.90976563 24.31359375 19.92578125 25.0546875 C21.80023115 26.4055935 23.70252993 27.71835329 25.625 29 C23.75 33.75 23.75 33.75 22.625 36 C18.36016626 35.10376001 15.2295164 32.94725583 11.671875 30.52734375 C11.01165344 30.0848378 10.35143188 29.64233185 9.67120361 29.18641663 C7.56878885 27.77549723 5.47187385 26.3566377 3.375 24.9375 C1.94827222 23.97798673 0.52119278 23.01899613 -0.90625 22.06054688 C-4.3999389 19.71307083 -7.88871782 17.3584604 -11.375 15 C-9.95814245 8.70025319 -6.41860398 1.90180859 0 0 Z " fill="#08843D" transform="translate(170.375,177)"/>
<path d="M0 0 C2.22990727 0.06034932 4.4590536 0.1492275 6.6875 0.25 C7.92886719 0.29640625 9.17023438 0.3428125 10.44921875 0.390625 C14.51247617 1.08794971 16.24359271 1.95289816 19 5 C20.10669961 9.88549628 19.70673128 14.61480669 17.4375 19.0625 C16.963125 19.701875 16.48875 20.34125 16 21 C16.33 21.66 16.66 22.32 17 23 C16.93625429 25.66283211 16.81175276 28.28327635 16.625 30.9375 C16.58117187 31.66646484 16.53734375 32.39542969 16.4921875 33.14648438 C16.28480647 36.2888831 16.00019011 38.99942967 15 42 C12.69 42 10.38 42 8 42 C7.89344422 35.55929529 8.03794912 29.37358711 9 23 C8.01 23 7.02 23 6 23 C5.67 28.94 5.34 34.88 5 41 C1.04 40.505 1.04 40.505 -3 40 C-3.12686218 32.33658467 -2.7716045 24.81665979 -2.0625 17.1875 C-1.97548828 16.19041016 -1.88847656 15.19332031 -1.79882812 14.16601562 C-1.37114019 9.40442325 -0.8863111 4.70303816 0 0 Z " fill="#08843D" transform="translate(446,44)"/>
<path d="M0 0 C4.33436723 3.30541031 6.5223835 7.78917648 7.609375 13.04296875 C6.54582626 17.82893807 3.81848846 19.74870221 -0.140625 22.41796875 C-2.84941835 23.77236543 -5.14995768 23.48298326 -8.140625 23.41796875 C-8.34945312 23.98902344 -8.55828125 24.56007812 -8.7734375 25.1484375 C-10.65256649 28.26779162 -13.00036705 29.71415323 -16.015625 31.73046875 C-17.06492187 32.44847656 -18.11421875 33.16648438 -19.1953125 33.90625 C-22.140625 35.41796875 -22.140625 35.41796875 -24.3984375 35.3359375 C-26.140625 34.41796875 -26.140625 34.41796875 -28.140625 31.41796875 C-28.140625 30.42796875 -28.140625 29.43796875 -28.140625 28.41796875 C-26.01356553 26.95062314 -23.95124127 25.67032253 -21.703125 24.41796875 C-16.82702615 21.95474474 -16.82702615 21.95474474 -14.140625 17.41796875 C-15.20023438 18.06765625 -16.25984375 18.71734375 -17.3515625 19.38671875 C-18.73944275 20.23069998 -20.12747129 21.07443739 -21.515625 21.91796875 C-22.21429687 22.34722656 -22.91296875 22.77648437 -23.6328125 23.21875 C-28.9140625 26.41796875 -28.9140625 26.41796875 -31.140625 26.41796875 C-32.828125 24.10546875 -32.828125 24.10546875 -34.140625 21.41796875 C-32.81111289 17.42943241 -31.09985497 16.88584057 -27.53125 14.73046875 C-26.96742615 14.38669189 -26.40360229 14.04291504 -25.82269287 13.6887207 C-24.01683717 12.59025771 -22.20395351 11.5040419 -20.390625 10.41796875 C-19.18441479 9.68699112 -17.97867973 8.9552288 -16.7734375 8.22265625 C-13.56855286 6.27762586 -10.35596482 4.34567664 -7.140625 2.41796875 C-6.233125 1.83490967 -5.325625 1.25185059 -4.390625 0.65112305 C-2.140625 -0.58203125 -2.140625 -0.58203125 0 0 Z " fill="#07833D" transform="translate(687.140625,185.58203125)"/>
<path d="M0 0 C4.95 0 9.9 0 15 0 C15.71615025 4.73170698 16.42958048 9.46366453 17.13623047 14.19677734 C17.37716965 15.80508682 17.61966222 17.41316442 17.86376953 19.02099609 C18.21540472 21.33891783 18.56135055 23.65763013 18.90625 25.9765625 C19.0156189 26.68930328 19.12498779 27.40204407 19.2376709 28.13638306 C19.82492428 32.12704749 20.11032814 35.96750648 20 40 C17.36 40 14.72 40 12 40 C12 38.02 12 36.04 12 34 C10.02 34 8.04 34 6 34 C6 36.31 6 38.62 6 41 C3.69 41 1.38 41 -1 41 C-1.12385692 27.29316778 -0.8230363 13.68297852 0 0 Z " fill="#0C8640" transform="translate(403,44)"/>
<path d="M0 0 C13.75022459 -0.36885848 27.31312253 0.7688359 41 2 C40.67 4.64 40.34 7.28 40 10 C37.69 10 35.38 10 33 10 C33 11.65 33 13.3 33 15 C35.475 15.495 35.475 15.495 38 16 C38 18.31 38 20.62 38 23 C30.66794236 22.39607247 23.7118149 20.48223777 16.6340332 18.56152344 C14.54487697 17.99522299 12.45333789 17.43846826 10.36132812 16.8828125 C0.14043099 14.14043099 0.14043099 14.14043099 -1 13 C-1.15250867 8.42473981 -0.98666017 4.47912395 0 0 Z " fill="#08843D" transform="translate(116,298)"/>
<path d="M0 0 C3.98646873 0.99661718 5.53891461 1.9315212 8.703125 4.38671875 C9.60160156 5.07830078 10.50007813 5.76988281 11.42578125 6.48242188 C12.35777344 7.21009766 13.28976563 7.93777344 14.25 8.6875 C16.08837066 10.10829421 17.92690989 11.52887034 19.765625 12.94921875 C20.64669922 13.63290527 21.52777344 14.3165918 22.43554688 15.02099609 C25.92971562 17.71746714 29.45829342 20.36640715 33 23 C31.48052501 26.36748512 30.47899158 27.60840337 27 29 C26.34 28.34 25.68 27.68 25 27 C22.91666667 27.16666667 22.91666667 27.16666667 21 28 C20.67 28.66 20.34 29.32 20 30 C21.32 30.66 22.64 31.32 24 32 C23.43628586 35.26954202 22.50037734 36.82575883 20 39 C16.77629571 37.9254319 16.25431079 37.3944369 14.1875 34.875 C9.97528813 29.88542714 5.49020543 25.17120057 0.9753418 20.45654297 C-2.4527155 16.83017613 -5.36907281 13.24343096 -8 9 C-5.36 6.03 -2.72 3.06 0 0 Z " fill="#08843D" transform="translate(195,143)"/>
<path d="M0 0 C3.0603333 1.7655769 5.50587755 3.50587755 8 6 C8.47325628 11.0165166 7.97071449 13.91526758 5 18 C2.625 17.75 2.625 17.75 0 17 C-1.375 15.1875 -1.375 15.1875 -2 13 C-1.625 10.75 -1.625 10.75 -1 9 C-4.4677969 10.1559323 -4.61780906 10.58716451 -6.2265625 13.67578125 C-6.6184375 14.42150391 -7.0103125 15.16722656 -7.4140625 15.93554688 C-7.81367187 16.71994141 -8.21328125 17.50433594 -8.625 18.3125 C-9.03234375 19.08529297 -9.4396875 19.85808594 -9.859375 20.65429688 C-11.64410506 24.09078869 -13.17736744 27.19598956 -14 31 C-10.97167833 30.33163756 -10.97167833 30.33163756 -9.875 28.3125 C-8.88337588 25.92299308 -8.88337588 25.92299308 -8.5 22.9375 C-8 20 -8 20 -6 17 C-2.9168649 18.19899698 0.06279492 19.47700477 3 21 C1.3003494 25.73474097 -1.13659027 29.96167111 -3.625 34.3125 C-4.04523437 35.05306641 -4.46546875 35.79363281 -4.8984375 36.55664062 C-5.92948495 38.37269011 -6.96436046 40.18656533 -8 42 C-8.99 41.67 -9.98 41.34 -11 41 C-11 40.01 -11 39.02 -11 38 C-12.051875 38.103125 -13.10375 38.20625 -14.1875 38.3125 C-18 38 -18 38 -20.9375 35.875 C-23.40470331 32.43586811 -23.36945675 31.14367336 -23 27 C-21.9777832 24.27099609 -21.9777832 24.27099609 -20.55078125 21.5234375 C-20.03193359 20.523125 -19.51308594 19.5228125 -18.97851562 18.4921875 C-18.42873047 17.46351562 -17.87894531 16.43484375 -17.3125 15.375 C-16.51682617 13.82039063 -16.51682617 13.82039063 -15.70507812 12.234375 C-8.53059074 -1.39274951 -8.53059074 -1.39274951 0 0 Z " fill="#0C8640" transform="translate(571,79)"/>
<path d="M0 0 C0.74617584 0.00707474 1.49235168 0.01414948 2.26113892 0.0214386 C4.62566842 0.04924948 6.9877588 0.11195325 9.3515625 0.17578125 C10.96220518 0.20088175 12.57288529 0.22369186 14.18359375 0.24414062 C18.11551162 0.29903115 22.04562473 0.38520276 25.9765625 0.48828125 C25.9765625 2.79828125 25.9765625 5.10828125 25.9765625 7.48828125 C23.07731884 8.93790308 20.45355895 8.70954606 17.21875 8.8046875 C16.22417282 8.83585915 16.22417282 8.83585915 15.20950317 8.86766052 C13.09029556 8.93307356 10.9709635 8.9920023 8.8515625 9.05078125 C7.41535169 9.09397434 5.97915348 9.13758889 4.54296875 9.18164062 C1.02096656 9.28874624 -2.50117575 9.390037 -6.0234375 9.48828125 C-6.0234375 10.14828125 -6.0234375 10.80828125 -6.0234375 11.48828125 C4.8665625 11.48828125 15.7565625 11.48828125 26.9765625 11.48828125 C26.9765625 14.12828125 26.9765625 16.76828125 26.9765625 19.48828125 C18.98253965 20.31882908 11.00937619 20.64367116 2.9765625 20.73828125 C1.61494995 20.77018555 1.61494995 20.77018555 0.22583008 20.80273438 C-4.66461485 20.82821255 -8.1045895 20.76419325 -12.0234375 17.48828125 C-14.02131838 14.49145993 -14.38278978 13.54742979 -14.5234375 10.11328125 C-14.575 9.36304688 -14.6265625 8.6128125 -14.6796875 7.83984375 C-12.73169956 0.85955363 -6.3138844 -0.22860877 0 0 Z " fill="#0B8540" transform="translate(712.0234375,340.51171875)"/>
<path d="M0 0 C6.34321053 1.01085867 11.75604622 3.99290219 17.5 6.75 C18.62792969 7.2759375 19.75585938 7.801875 20.91796875 8.34375 C31.47444881 13.39087183 31.47444881 13.39087183 35 18 C35.77199171 22.03151227 35.19352713 23.65298584 33.1875 27.25 C31 30 31 30 28 32 C19.87835575 32.0861967 13.08510543 27.98934831 6 24.4375 C4.73620683 23.81467913 3.47188754 23.19292462 2.20703125 22.57226562 C-0.86730711 21.05856468 -3.93589411 19.53427976 -7 18 C-6.125 13.25 -6.125 13.25 -5 11 C-0.70262492 11.55634953 2.67000919 12.58279898 6.546875 14.50390625 C7.55621094 14.99697266 8.56554687 15.49003906 9.60546875 15.99804688 C10.64316406 16.51431641 11.68085938 17.03058594 12.75 17.5625 C14.82645661 18.58802049 16.90450329 19.6103298 18.984375 20.62890625 C19.89928711 21.08338135 20.81419922 21.53785645 21.75683594 22.00610352 C23.89584314 23.13503164 23.89584314 23.13503164 26 23 C26 22.34 26 21.68 26 21 C25.36497559 20.68248779 24.72995117 20.36497559 24.07568359 20.0378418 C15.38378906 15.69189453 6.69189453 11.34594727 -2 7 C-1.125 2.25 -1.125 2.25 0 0 Z " fill="#09843E" transform="translate(145,214)"/>
<path d="M0 0 C2.375 1.4375 2.375 1.4375 4 4 C4.61641747 7.32760958 4.87103036 10.62099549 5 14 C2.36 14.33 -0.28 14.66 -3 15 C-3.33 12.69 -3.66 10.38 -4 8 C-4.99 7.67 -5.98 7.34 -7 7 C-6.22228059 11.14857755 -5.42551406 15.29326567 -4.625 19.4375 C-4.40328125 20.62150391 -4.1815625 21.80550781 -3.953125 23.02539062 C-3.62441406 24.71245117 -3.62441406 24.71245117 -3.2890625 26.43359375 C-2.99056396 27.99678345 -2.99056396 27.99678345 -2.68603516 29.59155273 C-2.45964355 30.38634033 -2.23325195 31.18112793 -2 32 C-1.34 32.33 -0.68 32.66 0 33 C-0.33 29.37 -0.66 25.74 -1 22 C2.96 21.505 2.96 21.505 7 21 C8.42109687 25.44092772 9.61394419 29.29309454 9 34 C6.84909549 37.33761045 5.79587201 38.73470933 2 40 C-3.76491228 40.65087719 -3.76491228 40.65087719 -6 40 C-11.04060885 35.34365281 -12.17018429 30.80897503 -13.3125 24.1875 C-13.48072266 23.33607422 -13.64894531 22.48464844 -13.82226562 21.60742188 C-14.83110228 16.20088094 -15.82233649 10.48951849 -15 5 C-10.55362386 -0.76827175 -6.97901168 -1.59170442 0 0 Z " fill="#0A853E" transform="translate(373,49)"/>
<path d="M0 0 C3.3 0 6.6 0 10 0 C11.4216319 3.3171411 12.39009109 6.44219804 13 10 C13.33 10 13.66 10 14 10 C14.66 6.7 15.32 3.4 16 0 C19.63 0 23.26 0 27 0 C27 7.59 27 15.18 27 23 C24.36 23 21.72 23 19 23 C18.67 21.02 18.34 19.04 18 17 C17.34 18.98 16.68 20.96 16 23 C14.02 23 12.04 23 10 23 C9.34 20.69 8.68 18.38 8 16 C7.67 18.31 7.34 20.62 7 23 C4.69 23 2.38 23 0 23 C0 15.41 0 7.82 0 0 Z " fill="#0F8743" transform="translate(183,665)"/>
<path d="M0 0 C2.5625 1.6875 2.5625 1.6875 4.5625 4.6875 C5.15624381 9.23696555 5.06799579 13.41045801 3.375 17.6875 C0.65715072 20.6865061 -1.57953286 21.49832516 -5.5859375 21.90625 C-10.33547861 22.09560048 -13.66856095 21.88538768 -17.4375 18.6875 C-19.21033963 15.77631071 -19.71073556 13.57989247 -19.6875 10.1875 C-19.69265625 9.4346875 -19.6978125 8.681875 -19.703125 7.90625 C-19.27337852 4.31660294 -18.1180155 2.26490709 -15.375 -0.0625 C-10.08954442 -2.31163004 -5.32085768 -2.03160021 0 0 Z " fill="#09843E" transform="translate(481.4375,666.3125)"/>
<path d="M0 0 C3.23861303 1.44424635 5.61969163 3.25772247 8.25 5.625 C8.95640625 6.25664063 9.6628125 6.88828125 10.390625 7.5390625 C10.92171875 8.02117187 11.4528125 8.50328125 12 9 C10.75023244 12.65316671 10.32901247 13.78065836 7 16 C5.68 14.68 4.36 13.36 3 12 C1.02 12.99 1.02 12.99 -1 14 C-1 17.13323425 1.04649081 18.68020784 3 21 C1.02 22.65 -0.96 24.3 -3 26 C-3.4125 25.484375 -3.825 24.96875 -4.25 24.4375 C-5.85679219 22.78850219 -5.85679219 22.78850219 -7.8125 23.09375 C-10.95735488 24.39661845 -12.54333389 26.4988732 -14.75 29.0625 C-15.54921875 29.98160156 -16.3484375 30.90070313 -17.171875 31.84765625 C-17.77515625 32.55792969 -18.3784375 33.26820313 -19 34 C-22.26011642 33.30621489 -23.79038253 32.54106009 -26 30 C-24.34944454 25.90820384 -21.42838877 23.02110918 -18.4375 19.875 C-17.35361327 18.71926875 -16.27028571 17.56301285 -15.1875 16.40625 C-14.38119141 15.54773438 -14.38119141 15.54773438 -13.55859375 14.671875 C-10.60227655 11.50068763 -7.72575393 8.25866641 -4.83984375 5.0234375 C-3.26982972 3.2967554 -1.6678705 1.63149949 0 0 Z " fill="#0A853F" transform="translate(629,120)"/>
<path d="M0 0 C0.495 2.97 0.495 2.97 1 6 C-1.64 7.65 -4.28 9.3 -7 11 C-3.7 10.67 -0.4 10.34 3 10 C4.25664978 12.90600261 5 14.79604584 5 18 C4.00371582 18.06731323 4.00371582 18.06731323 2.98730469 18.13598633 C-13.07095392 19.04905883 -13.07095392 19.04905883 -28.73046875 22.4140625 C-31.23077327 23.05958002 -33.42841399 23.10048826 -36 23 C-36.33 20.69 -36.66 18.38 -37 16 C-36.22140625 15.77828125 -35.4428125 15.5565625 -34.640625 15.328125 C-25.47280192 12.41301075 -17.7606202 8.12233519 -9.66699219 2.92675781 C-8.84489258 2.40694336 -8.02279297 1.88712891 -7.17578125 1.3515625 C-6.44270752 0.87541504 -5.70963379 0.39926758 -4.9543457 -0.09130859 C-3 -1 -3 -1 0 0 Z " fill="#08843D" transform="translate(722,254)"/>
<path d="M0 0 C0.15557373 0.76030518 0.31114746 1.52061035 0.47143555 2.30395508 C1.19675692 5.80971941 1.94199061 9.31097547 2.6875 12.8125 C3.05391602 14.6059082 3.05391602 14.6059082 3.42773438 16.43554688 C5.08845189 24.15052573 7.39967185 30.97292934 11 38 C8.61426621 39.89213369 6.92824652 41.02391783 4 42 C3.65710938 41.27039063 3.31421875 40.54078125 2.9609375 39.7890625 C-2.03080936 29.83015866 -8.60017874 21.42015241 -15.59887695 12.78662109 C-16.80672872 11.24644699 -17.91428263 9.62857605 -19 8 C-16.1875 6.4375 -16.1875 6.4375 -13 5 C-9.46766245 6.17744585 -9.13691925 6.95605641 -7.3125 10.0625 C-6.65701172 11.16271484 -6.65701172 11.16271484 -5.98828125 12.28515625 C-5.66214844 12.85105469 -5.33601563 13.41695312 -5 14 C-5.495 12.4221875 -5.495 12.4221875 -6 10.8125 C-6.83966782 7.61126643 -7.19750904 5.2588992 -7 2 C-2.25 0 -2.25 0 0 0 Z " fill="#0A853F" transform="translate(302,69)"/>
<path d="M0 0 C14.19642857 -0.53571429 14.19642857 -0.53571429 17.8125 1.875 C21.02993654 5.00050978 21.22059949 6.9239624 21.375 11.3125 C21.35279625 15.54786464 21.27605201 16.63677367 18.625 20.125 C12.7894081 24.29327993 7.06601078 23.06423646 0 23 C0 15.41 0 7.82 0 0 Z " fill="#05823A" transform="translate(255,665)"/>
<path d="M0 0 C2.64 0 5.28 0 8 0 C8 2.64 8 5.28 8 8 C10.31 8 12.62 8 15 8 C15 5.36 15 2.72 15 0 C17.64 0 20.28 0 23 0 C23 7.59 23 15.18 23 23 C20.36 23 17.72 23 15 23 C15 20.03 15 17.06 15 14 C12.69 14 10.38 14 8 14 C8 16.97 8 19.94 8 23 C5.36 23 2.72 23 0 23 C0 15.41 0 7.82 0 0 Z " fill="#118844" transform="translate(427,665)"/>
<path d="M0 0 C5.75 0.875 5.75 0.875 8 2 C7.67 3.65 7.34 5.3 7 7 C7.57363281 7.14695312 8.14726562 7.29390625 8.73828125 7.4453125 C18.26309773 9.96021093 27.6207594 12.99669912 37 16 C36.125 21.75 36.125 21.75 35 24 C24.18738347 21.49463763 13.60899531 18.24408596 3 15 C3 16.32 3 17.64 3 19 C0.36 18.34 -2.28 17.68 -5 17 C-3.7915371 11.05064416 -2.25422333 5.63555833 0 0 Z " fill="#0A853F" transform="translate(128,254)"/>
<path d="M0 0 C1.37491299 1.50787161 2.67364462 3.08539761 3.9375 4.6875 C5.12472656 6.1725 5.12472656 6.1725 6.3359375 7.6875 C6.76229492 8.22117187 7.18865234 8.75484375 7.62792969 9.3046875 C10.05744148 12.30656114 12.56149484 15.24516494 15.0625 18.1875 C15.79617798 19.05217896 15.79617798 19.05217896 16.54467773 19.93432617 C17.69563448 21.290245 18.84769147 22.64522978 20 24 C20.61746094 23.68675781 21.23492187 23.37351563 21.87109375 23.05078125 C23.99737618 22.00129506 25.63545703 21.22882674 28 21 C29.75 22.4375 29.75 22.4375 31 24 C29.47940093 27.88014936 27.13921469 29.73906562 23.875 32.25 C22.96492188 32.95640625 22.05484375 33.6628125 21.1171875 34.390625 C20.41851562 34.92171875 19.71984375 35.4528125 19 36 C10.6715292 27.94018955 3.20852297 19.06131602 -4 10 C-4.58007812 9.27554688 -5.16015625 8.55109375 -5.7578125 7.8046875 C-7 6 -7 6 -7 4 C-2.52941176 0 -2.52941176 0 0 0 Z " fill="#0D8641" transform="translate(224,117)"/>
<path d="M0 0 C5.12687366 4.50894538 8.31192593 10.0016251 11.8125 15.8125 C12.7087207 17.28106445 12.7087207 17.28106445 13.62304688 18.77929688 C15.08837682 21.18243799 16.54710221 23.58932958 18 26 C21.02266703 25.40348694 24.01725858 24.77330333 27 24 C29 27 29 27 28.96484375 28.953125 C27.5336709 31.98929735 25.3990003 33.02375534 22.5625 34.75 C21.57378906 35.36359375 20.58507812 35.9771875 19.56640625 36.609375 C17 38 17 38 15 38 C13.921875 36.58569336 13.921875 36.58569336 12.75 34.58984375 C12.31083252 33.85362793 11.87166504 33.11741211 11.41918945 32.35888672 C10.95085693 31.5598291 10.48252441 30.76077148 10 29.9375 C4.92452822 21.43962767 -0.43543893 13.18388808 -6 5 C-2.25 1.125 -2.25 1.125 0 0 Z " fill="#09843E" transform="translate(255,93)"/>
<path d="M0 0 C3.3 0 6.6 0 10 0 C11.17237387 3.26888939 12.33809988 6.53988944 13.5 9.8125 C13.83386719 10.74126953 14.16773438 11.67003906 14.51171875 12.62695312 C14.82753906 13.51962891 15.14335937 14.41230469 15.46875 15.33203125 C15.76201172 16.15421143 16.05527344 16.9763916 16.35742188 17.82348633 C17 20 17 20 17 23 C14.36 23 11.72 23 9 23 C9 22.01 9 21.02 9 20 C7.700625 20.12375 6.40125 20.2475 5.0625 20.375 C3.96615234 20.47941406 3.96615234 20.47941406 2.84765625 20.5859375 C2.23792969 20.72257813 1.62820313 20.85921875 1 21 C0.67 21.66 0.34 22.32 0 23 C-2.31 23 -4.62 23 -7 23 C-6.33654156 17.74272175 -4.74419696 13.07140932 -2.9375 8.125 C-2.65583984 7.34125 -2.37417969 6.5575 -2.08398438 5.75 C-1.39386218 3.83169424 -0.69755684 1.91561481 0 0 Z " fill="#0B8540" transform="translate(349,665)"/>
<path d="M0 0 C1.23556641 0.01740234 1.23556641 0.01740234 2.49609375 0.03515625 C3.32238281 0.04417969 4.14867187 0.05320312 5 0.0625 C5.63808594 0.07410156 6.27617188 0.08570313 6.93359375 0.09765625 C7.91649945 2.99226844 8.89503076 5.88823704 9.87109375 8.78515625 C10.2877832 10.01008789 10.2877832 10.01008789 10.71289062 11.25976562 C12.03095248 15.18219065 13.27412961 18.99896139 13.93359375 23.09765625 C11.62359375 23.09765625 9.31359375 23.09765625 6.93359375 23.09765625 C6.60359375 22.43765625 6.27359375 21.77765625 5.93359375 21.09765625 C4.03826033 20.63242562 4.03826033 20.63242562 1.87109375 20.47265625 C0.57171875 20.34890625 -0.72765625 20.22515625 -2.06640625 20.09765625 C-2.06640625 21.08765625 -2.06640625 22.07765625 -2.06640625 23.09765625 C-4.70640625 23.09765625 -7.34640625 23.09765625 -10.06640625 23.09765625 C-9.30057495 18.3112106 -7.69168429 13.89383491 -6.06640625 9.34765625 C-5.793125 8.56777344 -5.51984375 7.78789063 -5.23828125 6.984375 C-2.80741749 0.13267568 -2.80741749 0.13267568 0 0 Z " fill="#0A853F" transform="translate(624.06640625,664.90234375)"/>
<path d="M0 0 C6.27 0 12.54 0 19 0 C19 1.98 19 3.96 19 6 C15.04 6 11.08 6 7 6 C7 6.99 7 7.98 7 9 C10.3 9 13.6 9 17 9 C17 10.65 17 12.3 17 14 C13.7 14 10.4 14 7 14 C7 14.99 7 15.98 7 17 C10.96 17 14.92 17 19 17 C19 18.98 19 20.96 19 23 C12.73 23 6.46 23 0 23 C0 15.41 0 7.82 0 0 Z " fill="#018038" transform="translate(223,665)"/>
<path d="M0 0 C3 1.25 3 1.25 5 3 C5.8125 5.1875 5.8125 5.1875 6 7 C1.83861737 7.08159574 -1.9472484 6.98248524 -6 6 C-3.77524902 8.22475098 -2.40264256 8.65344345 0.5625 9.5625 C4.90277778 10.90277778 4.90277778 10.90277778 6 12 C6.45601889 16.02816683 6.64306166 18.16401984 4.125 21.4375 C-0.30504356 23.65252178 -4.13699808 23.65478844 -9 23 C-12.0625 21.8125 -12.0625 21.8125 -14 20 C-14.8125 17.3125 -14.8125 17.3125 -15 15 C-12.69 15 -10.38 15 -8 15 C-7.67 15.66 -7.34 16.32 -7 17 C-5.35 17 -3.7 17 -2 17 C-4.67985418 14.32014582 -7.42431913 13.83508045 -11.00390625 12.78125 C-13 12 -13 12 -14 10 C-14.375 7.125 -14.375 7.125 -14 4 C-10.14644822 -0.72370863 -5.68227218 -0.85439962 0 0 Z " fill="#09843E" transform="translate(512,665)"/>
<path d="M0 0 C3.58875 -0.0928125 3.58875 -0.0928125 7.25 -0.1875 C8.37003418 -0.22846802 8.37003418 -0.22846802 9.51269531 -0.27026367 C12.54266014 -0.30815861 14.73090179 -0.13497761 17.453125 1.23046875 C19.89965386 4.02914949 19.56083348 6.33085656 19.375 9.90234375 C19 12 19 12 17.5 14.0625 C13.88098213 15.4196317 10.85495364 15.19274768 7 15 C7 17.64 7 20.28 7 23 C4.69 23 2.38 23 0 23 C0 15.41 0 7.82 0 0 Z " fill="#05823B" transform="translate(531,665)"/>
<path d="M0 0 C2.91927604 1.3961755 4.72202996 2.72202996 7 5 C7.125 7.625 7.125 7.625 7 10 C3.625 10.1875 3.625 10.1875 0 10 C-0.66 9.01 -1.32 8.02 -2 7 C-3.65 7.33 -5.3 7.66 -7 8 C-7.020625 9.299375 -7.04125 10.59875 -7.0625 11.9375 C-7.07410156 12.66839844 -7.08570313 13.39929688 -7.09765625 14.15234375 C-7.20561184 16.01732141 -7.20561184 16.01732141 -6 17 C-4.33382885 17.04063832 -2.66611905 17.042721 -1 17 C-0.67 16.01 -0.34 15.02 0 14 C2.31 14 4.62 14 7 14 C6.875 16.8125 6.875 16.8125 6 20 C1.39629056 23.36856789 -2.51691682 23.5221984 -8 23 C-11.86511983 21.31951312 -13.43273342 19.85314883 -15 16 C-15.52484661 12.60230877 -15.55493704 9.39555537 -15 6 C-10.68881463 0.44083991 -6.89312555 -0.7673729 0 0 Z " fill="#08843D" transform="translate(324,665)"/>
<path d="M0 0 C2.31 0.33 4.62 0.66 7 1 C6.49945412 9.76935465 4.49265452 18.12335244 2.4375 26.625 C2.1042237 28.02459827 1.77153707 29.42433709 1.43945312 30.82421875 C0.63308532 34.2177912 -0.18121611 37.60939899 -1 41 C-4.96 40.505 -4.96 40.505 -9 40 C-6.59145318 26.4771533 -3.68981761 13.2319279 0 0 Z " fill="#0D8641" transform="translate(490,50)"/>
<path d="M0 0 C7.26 0 14.52 0 22 0 C22 1.98 22 3.96 22 6 C19.69 6 17.38 6 15 6 C15 11.61 15 17.22 15 23 C12.69 23 10.38 23 8 23 C8 17.39 8 11.78 8 6 C5.36 6 2.72 6 0 6 C0 4.02 0 2.04 0 0 Z " fill="#05823A" transform="translate(582,665)"/>
<path d="M0 0 C2.64 0 5.28 0 8 0 C8 5.61 8 11.22 8 17 C11.63 17 15.26 17 19 17 C19 18.98 19 20.96 19 23 C12.73 23 6.46 23 0 23 C0 15.41 0 7.82 0 0 Z " fill="#108844" transform="translate(377,665)"/>
<path d="M0 0 C2.31 0 4.62 0 7 0 C7 5.61 7 11.22 7 17 C10.96 17 14.92 17 19 17 C19 18.98 19 20.96 19 23 C12.73 23 6.46 23 0 23 C0 15.41 0 7.82 0 0 Z " fill="#06833B" transform="translate(650,665)"/>
<path d="M0 0 C3.06303578 -0.08115993 6.12390815 -0.14057409 9.1875 -0.1875 C10.48397461 -0.22520508 10.48397461 -0.22520508 11.80664062 -0.26367188 C16.73038334 -0.32026662 19.96831189 -0.18027571 24 3 C23.75 5.375 23.75 5.375 23 8 C20.11807348 9.88323121 17.85374285 10.2412668 14.453125 10.1953125 C13.18662109 10.18564453 13.18662109 10.18564453 11.89453125 10.17578125 C11.02183594 10.15902344 10.14914062 10.14226563 9.25 10.125 C7.91775391 10.11146484 7.91775391 10.11146484 6.55859375 10.09765625 C4.37227989 10.0741475 2.18610516 10.03827811 0 10 C0 6.7 0 3.4 0 0 Z " fill="#F9FBFD" transform="translate(335,586)"/>
<path d="M0 0 C2.89608593 -0.05413245 5.79115195 -0.09373641 8.6875 -0.125 C9.91243164 -0.15013672 9.91243164 -0.15013672 11.16210938 -0.17578125 C19.14405219 -0.24041237 19.14405219 -0.24041237 23 2 C23.9375 4.5 23.9375 4.5 24 7 C21.41774944 9.58225056 19.48252517 9.92010035 15.89355469 10.11352539 C15.16040039 10.10828857 14.42724609 10.10305176 13.671875 10.09765625 C12.87265625 10.09443359 12.0734375 10.09121094 11.25 10.08789062 C10.425 10.07951172 9.6 10.07113281 8.75 10.0625 C7.90953125 10.05798828 7.0690625 10.05347656 6.203125 10.04882812 C4.13538599 10.03707961 2.06768376 10.01914522 0 10 C0 6.7 0 3.4 0 0 Z " fill="#FAFBFD" transform="translate(644,586)"/>
<path d="M0 0 C2.31 0 4.62 0 7 0 C7 7.59 7 15.18 7 23 C4.69 23 2.38 23 0 23 C0 15.41 0 7.82 0 0 Z " fill="#038139" transform="translate(563,665)"/>
<path d="M0 0 C2.31 0 4.62 0 7 0 C7 7.59 7 15.18 7 23 C4.69 23 2.38 23 0 23 C0 15.41 0 7.82 0 0 Z " fill="#038139" transform="translate(289,665)"/>
<path d="M0 0 C0.66 0 1.32 0 2 0 C3.28627909 1.92941863 4.48111347 3.92039967 5.625 5.9375 C6.25664063 7.03964844 6.88828125 8.14179687 7.5390625 9.27734375 C9 12 9 12 9 13 C3.72 13 -1.56 13 -7 13 C-5.47005208 10.20052083 -3.94010417 7.40104167 -2.41015625 4.6015625 C-1.5850241 3.07929654 -0.77435609 1.54871217 0 0 Z " fill="#F2F7FB" transform="translate(576,589)"/>
<path d="M0 0 C3.67882073 3.28466137 5.75150101 6.66360908 8 11 C8 11.66 8 12.32 8 13 C3.05 13 -1.9 13 -7 13 C-5.58001139 9.45002848 -4.3878411 6.81270066 -2.375 3.6875 C-1.92898438 2.99011719 -1.48296875 2.29273438 -1.0234375 1.57421875 C-0.51683594 0.79498047 -0.51683594 0.79498047 0 0 Z " fill="#F4F8FC" transform="translate(423,589)"/>
<path d="M0 0 C1 1 1 1 1.25 4.375 C1 8 1 8 -0.1875 10 C-2 11 -2 11 -4.5625 10.8125 C-7 10 -7 10 -9 8 C-9.33302312 4.8695827 -9.47671956 2.82101702 -7.875 0.0625 C-5.04805609 -1.53943488 -3.05073223 -0.79584319 0 0 Z " fill="#EFF7F2" transform="translate(478,672)"/>
<path d="M0 0 C-0.30953519 3.09535193 -1.02926454 4.0278897 -3.328125 6.21875 C-4.77445313 7.34796875 -4.77445313 7.34796875 -6.25 8.5 C-7.20390625 9.2528125 -8.1578125 10.005625 -9.140625 10.78125 C-10.08421875 11.5134375 -11.0278125 12.245625 -12 13 C-13.29164063 14.12921875 -13.29164063 14.12921875 -14.609375 15.28125 C-17 17 -17 17 -21 17 C-18.90679013 12.24540486 -15.49560639 9.58546574 -11.625 6.25 C-10.95210937 5.64800781 -10.27921875 5.04601562 -9.5859375 4.42578125 C-8.93109375 3.85730469 -8.27625 3.28882813 -7.6015625 2.703125 C-7.00682129 2.18395508 -6.41208008 1.66478516 -5.79931641 1.12988281 C-4 0 -4 0 0 0 Z " fill="#EAF5EF" transform="translate(660,160)"/>
<path d="M0 0 C-0.33 1.32 -0.66 2.64 -1 4 C-3.8740422 4.50612064 -6.74902873 5.00506541 -9.625 5.5 C-10.43324219 5.64308594 -11.24148438 5.78617187 -12.07421875 5.93359375 C-16.43877864 6.67876251 -20.55238129 7.17272306 -25 7 C-25 6.01 -25 5.02 -25 4 C-17.00566931 1.39719466 -8.42235633 -0.21916912 0 0 Z " fill="#F3F9F5" transform="translate(727,305)"/>
<path d="M0 0 C1.65 0 3.3 0 5 0 C7 2 7 2 7.25 5.5 C7 9 7 9 5 11 C3.35 11 1.7 11 0 11 C0 7.37 0 3.74 0 0 Z " fill="#EEF6F1" transform="translate(262,671)"/>
<path d="M0 0 C-0.16015625 1.765625 -0.16015625 1.765625 -1 4 C-3.43359375 5.921875 -3.43359375 5.921875 -6.4375 7.75 C-7.42621094 8.36359375 -8.41492188 8.9771875 -9.43359375 9.609375 C-12 11 -12 11 -14 11 C-14.33 11.66 -14.66 12.32 -15 13 C-14.4471464 9.13002479 -12.95415074 7.49966601 -10 5 C-2.76504298 0 -2.76504298 0 0 0 Z " fill="#E8F4ED" transform="translate(673,203)"/>
<path d="M0 0 C0.99 0 1.98 0 3 0 C2.67 5.94 2.34 11.88 2 18 C-1 15 -1 15 -1.328125 12.94921875 C-1.30234375 12.20285156 -1.2765625 11.45648438 -1.25 10.6875 C-1.22421875 9.89859375 -1.1984375 9.1096875 -1.171875 8.296875 C-0.96178762 5.48934359 -0.56564818 2.75753489 0 0 Z " fill="#DAECE2" transform="translate(452,67)"/>
<path d="M0 0 C4.05214179 1.74522938 7.30603961 4.4228157 10.75 7.125 C11.35199219 7.59292969 11.95398438 8.06085938 12.57421875 8.54296875 C14.05186616 9.69225007 15.52626005 10.84571235 17 12 C16.01 12.99 15.02 13.98 14 15 C11.66265901 12.69152056 9.33081534 10.37756659 7 8.0625 C6.33226562 7.40314453 5.66453125 6.74378906 4.9765625 6.06445312 C4.34492188 5.43603516 3.71328125 4.80761719 3.0625 4.16015625 C2.47597656 3.57886963 1.88945312 2.99758301 1.28515625 2.39868164 C0 1 0 1 0 0 Z " fill="#CDE6D8" transform="translate(196,152)"/>
<path d="M0 0 C2 3 2 3 1.828125 4.9375 C1.63734375 5.618125 1.4465625 6.29875 1.25 7 C1.06953125 7.680625 0.8890625 8.36125 0.703125 9.0625 C0 11 0 11 -2 14 C-2.99 14 -3.98 14 -5 14 C-4.46515599 8.65155992 -2.53309233 4.64203897 0 0 Z " fill="#E8F3ED" transform="translate(562,96)"/>
<path d="M0 0 C1.9756562 2.96348429 2.26376859 3.68020373 2.4140625 7.01171875 C2.45273437 7.76904297 2.49140625 8.52636719 2.53125 9.30664062 C2.57765625 10.48516602 2.57765625 10.48516602 2.625 11.6875 C2.66367187 12.48478516 2.70234375 13.28207031 2.7421875 14.10351562 C2.83632494 16.06863475 2.91924632 18.0342854 3 20 C2.01 20 1.02 20 0 20 C0 13.4 0 6.8 0 0 Z " fill="#CBE5D6" transform="translate(410,51)"/>
<path d="M0 0 C2.58366245 0.14120016 5.16682885 0.28778333 7.75 0.4375 C8.47960937 0.47681641 9.20921875 0.51613281 9.9609375 0.55664062 C13.4272973 0.76147098 16.65333026 1.0852002 20 2 C20 2.99 20 3.98 20 5 C13.13963599 4.34034961 6.65556077 2.7637236 0 1 C0 0.67 0 0.34 0 0 Z " fill="#BCDDCB" transform="translate(122,305)"/>
<path d="M0 0 C1.3357457 3.77371512 0.72408671 6.85831347 0.0625 10.75 C-0.13214844 11.92046875 -0.32679688 13.0909375 -0.52734375 14.296875 C-0.76130859 15.63492188 -0.76130859 15.63492188 -1 17 C-1.66 16.01 -2.32 15.02 -3 14 C-3.99 14.495 -3.99 14.495 -5 15 C-1.92482916 4.44191344 -1.92482916 4.44191344 0 0 Z " fill="#CFE7DA" transform="translate(521,84)"/>
<path d="M0 0 C0.33 0 0.66 0 1 0 C1.12086218 6.43255401 0.82351864 12.61773055 0 19 C-0.99 19.33 -1.98 19.66 -3 20 C-2.22602467 13.29221378 -1.14231412 6.65425699 0 0 Z " fill="#75CC7E" transform="translate(463,218)"/>
<path d="M0 0 C0.99 0 1.98 0 3 0 C2.86722656 0.64066406 2.73445313 1.28132813 2.59765625 1.94140625 C1.57506994 6.94983993 0.66115853 11.93111794 0 17 C-0.33 17 -0.66 17 -1 17 C-1.10477512 11.21408489 -0.99250545 5.70690634 0 0 Z " fill="#84D47E" transform="translate(387,490)"/>
<path d="M0 0 C1.32 0.33 2.64 0.66 4 1 C4 2.98 4 4.96 4 7 C2.68 7.33 1.36 7.66 0 8 C0 5.36 0 2.72 0 0 Z " fill="#CDE6D8" transform="translate(453,52)"/>
<path d="M0 0 C2.475 0.99 2.475 0.99 5 2 C5 3.32 5 4.64 5 6 C2.08482708 4.92598892 0.22189824 4.22189824 -2 2 C-1.34 1.34 -0.68 0.68 0 0 Z " fill="#DFEFE6" transform="translate(171,186)"/>
<path d="M0 0 C1.67381019 0.29537827 3.33911955 0.63893903 5 1 C7.33177975 1.34403308 9.66487041 1.67949202 12 2 C12 2.33 12 2.66 12 3 C10.39884424 3.2493357 8.79379841 3.47378648 7.1875 3.6875 C5.84751953 3.87892578 5.84751953 3.87892578 4.48046875 4.07421875 C2 4 2 4 0.17578125 2.51953125 C-0.21222656 2.01808594 -0.60023438 1.51664063 -1 1 C-0.67 0.67 -0.34 0.34 0 0 Z " fill="#CEE7D8" transform="translate(506,670)"/>
<path d="M0 0 C-0.33 0.99 -0.66 1.98 -1 3 C-2.98 3.33 -4.96 3.66 -7 4 C-7 3.01 -7 2.02 -7 1 C-3.375 -1.125 -3.375 -1.125 0 0 Z " fill="#E8F3ED" transform="translate(686,197)"/>
<path d="M0 0 C2.31 0.33 4.62 0.66 7 1 C7 1.99 7 2.98 7 4 C5.35 4 3.7 4 2 4 C1.34 2.68 0.68 1.36 0 0 Z " fill="#E2F0E8" transform="translate(503,679)"/>
<path d="M0 0 C2.475 0.495 2.475 0.495 5 1 C4.67 2.32 4.34 3.64 4 5 C2.68 5 1.36 5 0 5 C0 3.35 0 1.7 0 0 Z " fill="#F5FAF7" transform="translate(538,670)"/>
<path d="M0 0 C0.66 0 1.32 0 2 0 C2.33 2.31 2.66 4.62 3 7 C1.68 7 0.36 7 -1 7 C-0.67 4.69 -0.34 2.38 0 0 Z " fill="#D9ECE1" transform="translate(353,673)"/>
<path d="M0 0 C0.66 0 1.32 0 2 0 C2.33 2.31 2.66 4.62 3 7 C1.68 7 0.36 7 -1 7 C-0.67 4.69 -0.34 2.38 0 0 Z " fill="#DEEFE5" transform="translate(625,673)"/>
<path d="M0 0 C2.64 0 5.28 0 8 0 C8 0.99 8 1.98 8 3 C5.36 2.67 2.72 2.34 0 2 C0 1.34 0 0.68 0 0 Z " fill="#F3F9F6" transform="translate(134,307)"/>
</svg>
